<svg version="1.1" id="Layer_1" xmlns="http://www.w3.org/2000/svg" xmlns:xlink="http://www.w3.org/1999/xlink" x="0px" y="0px"
	 width="100%" viewBox="0 0 1536 1024" enable-background="new 0 0 1536 1024" xml:space="preserve">
<path fill="#151C2B" opacity="1.000000" stroke="none" 
	d="
M822.000000,1025.000000 
	C548.000000,1025.000000 274.500000,1025.000000 1.000000,1025.000000 
	C1.000000,683.666687 1.000000,342.333344 1.000000,1.000000 
	C513.000000,1.000000 1025.000000,1.000000 1537.000000,1.000000 
	C1537.000000,342.333344 1537.000000,683.666687 1537.000000,1025.000000 
	C1298.833374,1025.000000 1060.666626,1025.000000 822.000000,1025.000000 
M627.229248,266.524292 
	C626.552368,268.251556 625.285828,269.977905 625.283142,271.706207 
	C625.160339,350.183655 625.148193,428.661285 625.123169,507.138885 
	C625.122620,508.733673 625.123108,510.328491 625.123108,511.855347 
	C719.900269,511.855347 813.979248,511.855347 908.279785,511.855347 
	C908.279785,460.852570 908.279785,410.093079 908.279785,359.131958 
	C862.004883,359.131958 816.059570,359.131958 769.828003,359.131958 
	C769.828003,376.118774 769.828003,393.006836 769.828003,410.401855 
	C797.616150,410.401855 825.020508,410.401855 852.491089,410.401855 
	C852.491089,428.141266 852.491089,445.370941 852.491089,462.623993 
	C795.234985,462.623993 738.333740,462.623993 681.322632,462.623993 
	C681.322632,414.128967 681.322632,365.914886 681.322632,317.231018 
	C734.557190,317.231018 787.457886,317.231018 840.787354,317.231018 
	C840.787354,304.310028 840.854797,291.854431 840.750305,279.400299 
	C840.714355,275.114441 840.249268,270.832184 839.651428,265.867523 
	C838.580750,265.578979 837.510681,265.041718 836.439209,265.038910 
	C817.630981,264.989410 798.822449,264.979584 780.014404,265.060150 
	C778.653320,265.065979 777.295471,265.832642 775.117249,266.546265 
	C773.100464,266.446289 771.083740,266.346344 768.508606,265.596649 
	C767.719788,265.403229 766.931213,265.042511 766.142029,265.040955 
	C748.256653,265.005676 730.371094,264.986084 712.486023,265.060059 
	C711.300171,265.064941 710.117432,265.838593 708.114929,266.557800 
	C706.098267,266.451813 704.081665,266.345825 701.505920,265.591431 
	C700.718140,265.398773 699.930725,265.039856 699.142517,265.038055 
	C683.933350,265.003326 668.723999,264.983521 653.515137,265.060974 
	C652.323425,265.067047 651.135559,265.811615 649.197754,266.509430 
	C648.144531,266.407623 647.091370,266.305786 645.829407,265.862274 
	C645.540833,265.975830 645.252197,266.089386 644.265442,266.495056 
	C643.528320,266.399139 642.791260,266.303192 641.495667,265.570221 
	C636.977722,265.788727 632.459717,266.007233 627.229248,266.524292 
M574.513733,642.688538 
	C564.597656,642.297363 555.148376,640.220642 548.190308,632.607849 
	C538.454041,621.955505 537.361633,609.301086 541.765991,596.160339 
	C546.090088,583.259033 555.809631,576.241455 568.951965,574.046753 
	C581.296143,571.985229 592.688477,574.795532 603.168823,582.594116 
	C606.472046,577.298279 609.516296,572.417725 612.824585,567.113770 
	C610.078979,565.416199 607.798218,563.796875 605.339233,562.521301 
	C593.580444,556.421509 581.024353,555.011597 567.977356,556.086670 
	C545.227783,557.960999 527.245667,571.549438 520.487305,592.230408 
	C512.809570,615.724609 521.759033,642.082520 542.001282,652.622192 
	C565.432922,664.822449 588.866943,662.982910 611.627380,650.145691 
	C612.697266,649.542419 613.883057,647.975220 613.895630,646.844543 
	C614.050293,632.881958 613.996582,618.917053 613.996582,604.582153 
	C599.532349,604.582153 585.467163,604.582153 571.300720,604.582153 
	C571.300720,609.724426 571.300720,614.649170 571.300720,620.074707 
	C578.929565,620.074707 586.344299,620.074707 594.224854,620.074707 
	C594.224854,625.696289 594.393433,630.833435 594.102661,635.944519 
	C594.032654,637.175232 592.636536,639.085266 591.514648,639.372803 
	C586.232788,640.726257 580.834045,641.623901 574.513733,642.688538 
M993.324951,610.984680 
	C993.689331,613.334961 993.214294,614.849121 990.301514,614.615662 
	C987.985901,614.429932 985.627258,614.419495 983.314148,614.626465 
	C973.920288,615.466797 964.279541,615.375916 955.216370,617.605835 
	C944.605713,620.216431 939.906250,628.810669 940.838684,639.738098 
	C941.615662,648.842773 948.171326,656.315613 958.533813,659.019348 
	C971.539246,662.412598 983.507690,660.300842 994.003174,650.351379 
	C994.278503,653.418884 994.492126,655.799500 994.724854,658.392700 
	C1001.290039,658.392700 1007.544983,658.392700 1013.944214,658.392700 
	C1014.118408,657.652039 1014.393982,657.024658 1014.394714,656.396912 
	C1014.414062,640.913574 1014.815369,625.415649 1014.269043,609.951477 
	C1013.835571,597.681274 1006.946533,589.002136 995.280090,585.793701 
	C987.434937,583.636169 978.894897,583.098755 970.707520,583.328308 
	C961.049805,583.599121 952.007202,586.978271 943.915649,592.716553 
	C947.340149,597.267517 950.418457,601.358398 952.714417,604.409546 
	C960.099792,602.273193 966.755554,599.655518 973.655457,598.514160 
	C984.026001,596.798767 991.329712,601.548889 993.324951,610.984680 
M685.133301,628.404846 
	C687.586365,643.856018 696.837646,653.286072 711.385742,657.998352 
	C722.363831,661.554382 733.497742,661.565857 744.254272,657.759705 
	C750.155151,655.671631 755.438538,651.838379 760.236450,649.210388 
	C756.112549,644.436768 752.758057,640.553711 749.346558,636.604736 
	C739.149048,644.941223 728.137085,646.826721 716.417419,641.824341 
	C710.508362,639.302002 706.931030,634.428284 706.021545,627.123657 
	C725.536682,627.123657 744.566833,627.123657 763.613037,627.123657 
	C764.965149,612.769165 762.793274,600.041870 750.986084,591.182861 
	C736.086487,580.003479 719.771790,580.017334 703.934631,588.356262 
	C688.492493,596.487305 683.364380,610.641785 685.133301,628.404846 
M794.085999,656.423584 
	C813.860474,664.314148 836.147156,660.525085 846.382812,648.224915 
	C843.068176,644.380188 839.819702,640.612183 836.485107,636.744385 
	C825.867798,644.735229 814.645142,647.213074 802.632507,641.324951 
	C797.054932,638.591003 793.587219,633.889160 792.942505,626.852234 
	C812.486084,626.852234 831.551941,626.852234 850.681152,626.852234 
	C851.556763,617.665344 851.169373,609.147339 846.783630,601.217834 
	C839.357178,587.790710 824.136292,581.047729 806.015625,583.196594 
	C788.109741,585.319946 774.953918,597.678284 772.223633,614.940063 
	C769.364075,633.019104 777.276062,648.408813 794.085999,656.423584 
M857.279541,584.390503 
	C856.187195,584.471558 855.094788,584.552673 853.116394,584.699524 
	C862.954468,597.377197 872.289917,609.407227 881.728149,621.569702 
	C872.304077,633.611755 862.848572,645.694031 852.772522,658.569214 
	C859.998901,658.569214 866.105042,658.376587 872.190186,658.650330 
	C875.234985,658.787231 877.020386,657.661072 878.747681,655.324402 
	C883.826721,648.453552 889.121277,641.741943 894.460388,634.800354 
	C900.086426,642.069458 905.345642,648.933838 910.704895,655.719177 
	C911.568848,656.812988 912.853516,658.300354 913.985962,658.338013 
	C921.162292,658.577087 928.350403,658.459412 936.485779,658.459412 
	C926.173706,645.445251 916.495056,633.230469 906.793884,620.987305 
	C916.053467,608.884033 925.074890,597.092102 934.786438,584.398010 
	C927.622559,584.398010 921.658691,584.142700 915.737854,584.535889 
	C913.654663,584.674194 911.083862,585.904480 909.755432,587.490417 
	C904.469543,593.800781 899.586121,600.448303 894.244995,607.371033 
	C891.752686,604.130981 889.865295,601.640137 887.938354,599.180237 
	C884.144165,594.336731 881.242615,587.668823 876.263245,585.195862 
	C871.302734,582.732361 864.248352,584.484985 857.279541,584.390503 
M885.500000,317.146149 
	C892.976562,317.146149 900.453064,317.146149 907.939514,317.146149 
	C908.229736,316.108398 908.555969,315.481995 908.558350,314.854370 
	C908.614197,299.857300 908.581238,284.859619 908.706299,269.863251 
	C908.732727,266.696014 907.005310,266.429718 904.570862,266.434143 
	C888.915527,266.462708 873.258850,266.529053 857.605286,266.349762 
	C853.965637,266.308075 853.109802,267.701141 853.139099,271.038452 
	C853.263306,285.201660 853.166138,299.366760 853.193665,313.531036 
	C853.195801,314.623810 853.537781,315.715912 853.778992,317.148010 
	C864.193359,317.148010 874.346680,317.148010 885.500000,317.146149 
M650.635925,584.981506 
	C644.282654,584.662964 637.929443,584.344421 631.448914,584.019470 
	C631.448914,609.361206 631.448914,633.757690 631.448914,658.234131 
	C638.309814,658.234131 644.857910,658.234131 651.708496,658.234131 
	C651.708496,646.047668 651.611938,634.228943 651.734802,622.412415 
	C651.866150,609.782593 658.617188,602.653198 671.216309,601.701782 
	C674.132568,601.481628 677.079590,601.669373 680.224792,601.669373 
	C680.224792,595.286438 680.224792,589.249451 680.224792,583.041870 
	C668.846802,582.814636 659.333435,586.181335 650.843201,595.250977 
	C650.843201,591.359253 650.843201,588.611084 650.635925,584.981506 
M697.183411,690.914734 
	C695.520630,690.068054 693.857788,689.221436 691.482300,688.011841 
	C691.482300,698.500183 691.482300,707.719055 691.482300,717.374268 
	C693.271667,717.269653 694.797913,717.180359 696.710693,717.068481 
	C696.710693,711.029724 696.710693,705.536377 696.710693,698.780273 
	C700.589722,704.582092 703.747375,709.305115 707.520386,714.948425 
	C711.452759,709.202454 714.910583,704.149841 719.106567,698.018677 
	C719.106567,705.231506 719.106567,711.089050 719.106567,717.143188 
	C720.888184,717.143188 722.310120,717.143188 723.930786,717.143188 
	C723.930786,707.729492 723.930786,698.493103 723.930786,687.974121 
	C714.748169,691.829346 713.388062,701.288940 707.773987,707.061279 
	C704.338928,701.810547 700.982361,696.679810 697.183411,690.914734 
M600.690063,712.120728 
	C600.833313,710.871948 600.976562,709.623108 601.082458,708.700012 
	C606.867676,707.247620 611.009399,708.767456 613.232056,714.029724 
	C614.766907,717.663879 617.444275,717.949829 621.167542,717.138977 
	C618.887390,713.910156 616.823547,710.987610 614.766541,708.074829 
	C620.282593,704.072571 622.078186,700.046753 620.589355,695.397644 
	C619.204712,691.073975 615.396301,688.944336 608.859741,688.898315 
	C604.395325,688.866882 599.930542,688.892273 595.535950,688.892273 
	C595.535950,698.528076 595.535950,707.760803 595.535950,716.862671 
	C599.704834,718.360779 601.132629,716.844971 600.690063,712.120728 
M993.604980,717.254456 
	C996.205078,717.684692 997.512573,717.056396 997.421082,713.947571 
	C997.191284,706.135803 997.316162,698.313721 997.267761,690.496033 
	C997.265076,690.058350 996.981506,689.622437 996.823486,689.170837 
	C995.299500,689.170837 993.882080,689.170837 991.925171,689.170837 
	C991.925171,693.139221 991.925171,696.864807 991.925171,700.434937 
	C986.473328,700.434937 981.572083,700.434937 976.252686,700.434937 
	C976.252686,696.472961 976.252686,692.874817 976.252686,689.233765 
	C974.257690,689.233765 972.695618,689.233765 971.219971,689.233765 
	C971.219971,698.734192 971.219971,707.946228 971.219971,717.236023 
	C973.003357,717.236023 974.424011,717.236023 976.347168,717.236023 
	C976.347168,713.121460 976.347168,709.235962 976.347168,705.339111 
	C981.784119,705.339111 986.714111,705.339111 991.672485,705.339111 
	C992.065857,709.419617 992.436646,713.265869 993.604980,717.254456 
M862.862000,688.905090 
	C862.084290,689.674133 860.645081,690.430725 860.630371,691.214111 
	C860.468689,699.822449 860.528870,708.434937 860.528870,717.593567 
	C867.702026,717.593567 874.314514,717.728943 880.908020,717.436218 
	C881.814819,717.395874 882.627258,715.230042 884.302673,712.917480 
	C876.987488,712.917480 871.577637,712.917480 866.421753,712.917480 
	C866.421753,710.008118 866.421753,707.606812 866.421753,704.896484 
	C871.387695,704.896484 875.998047,704.896484 880.883240,704.896484 
	C880.721680,703.327209 880.597534,702.120544 880.445740,700.646484 
	C875.471802,700.646484 870.871338,700.646484 866.423462,700.646484 
	C866.423462,697.935181 866.423462,695.566650 866.423462,693.149231 
	C870.983154,693.149231 875.144592,693.015625 879.292847,693.191956 
	C882.545837,693.330261 883.458801,692.139221 882.158020,688.901611 
	C876.081055,688.901611 869.941406,688.901611 862.862000,688.905090 
M556.297180,689.055176 
	C550.709839,689.055176 545.122559,689.055176 539.328125,689.055176 
	C539.328125,698.580566 539.328125,707.776184 539.328125,717.149109 
	C541.110352,717.149109 542.666016,717.149109 544.669861,717.149109 
	C544.669861,714.285339 544.669861,711.703552 544.669861,708.956299 
	C548.370239,708.716370 551.665100,708.688049 554.905151,708.252258 
	C560.782410,707.461731 564.195007,704.215759 564.671570,699.333313 
	C565.144348,694.489258 562.829651,691.388550 556.297180,689.055176 
M764.366943,713.288513 
	C759.725586,711.536682 763.277161,708.051208 762.175232,705.024170 
	C767.464355,705.024170 772.232849,705.024170 777.355164,705.024170 
	C777.133606,703.386963 776.973938,702.207214 776.768005,700.685425 
	C771.824097,700.685425 767.220520,700.685425 762.483276,700.685425 
	C762.483276,698.022278 762.483276,695.756348 762.483276,693.018311 
	C768.108032,693.018311 773.515808,693.018311 778.869873,693.018311 
	C778.869873,691.434143 778.869873,690.324463 778.869873,689.285583 
	C771.433472,689.285583 764.209717,689.285583 757.093933,689.285583 
	C757.093933,698.805786 757.093933,707.939331 757.093933,717.487915 
	C764.053894,717.487915 770.851746,717.604980 777.635620,717.348511 
	C778.542480,717.314148 779.377930,715.390442 781.115295,713.292603 
	C774.654846,713.292603 770.020996,713.292603 764.366943,713.288513 
M928.511475,688.385864 
	C924.320496,690.064758 919.302246,690.808777 916.118591,693.626038 
	C910.299072,698.775879 911.015991,708.534912 916.521790,713.826599 
	C922.557434,719.627502 933.820007,719.320312 940.228821,712.958923 
	C939.195007,711.971680 938.166565,710.989563 936.958374,709.835876 
	C932.393066,714.266785 927.279236,714.600830 922.217957,711.626953 
	C918.148560,709.235779 916.763245,704.807312 918.250732,700.693237 
	C922.167419,689.860229 929.761597,692.023376 937.684326,696.209656 
	C938.605042,695.112122 939.507629,694.036133 941.374451,691.810730 
	C936.753113,690.485107 933.053284,689.423767 928.511475,688.385864 
M823.459473,688.932617 
	C818.980347,688.922729 814.492371,689.082825 810.024841,688.850037 
	C806.330994,688.657593 806.359741,690.319092 807.408875,693.352661 
	C810.591858,693.352661 813.667358,693.352661 817.070557,693.352661 
	C817.070557,701.534485 817.070557,709.268250 817.070557,717.077026 
	C818.832336,717.077026 820.238403,717.077026 822.277832,717.077026 
	C822.277832,709.016357 822.277832,701.159851 822.277832,693.385986 
	C832.105469,692.673950 832.105469,692.673950 831.350220,688.934692 
	C829.068176,688.934692 826.754944,688.934692 823.459473,688.932617 
M652.887329,698.524963 
	C652.887329,704.642151 652.887329,710.759338 652.887329,717.196777 
	C654.687561,717.196777 656.220581,717.196777 657.815186,717.196777 
	C657.815186,707.697449 657.815186,698.473572 657.815186,689.235229 
	C656.048584,689.235229 654.532898,689.235229 652.888794,689.235229 
	C652.888794,692.246399 652.888794,694.890076 652.887329,698.524963 
z"/>
<path fill="#FDFDFD" opacity="1.000000" stroke="none" 
	d="
M839.980225,266.548279 
	C840.249268,270.832184 840.714355,275.114441 840.750305,279.400299 
	C840.854797,291.854431 840.787354,304.310028 840.787354,317.231018 
	C787.457886,317.231018 734.557190,317.231018 681.322632,317.231018 
	C681.322632,365.914886 681.322632,414.128967 681.322632,462.623993 
	C738.333740,462.623993 795.234985,462.623993 852.491089,462.623993 
	C852.491089,445.370941 852.491089,428.141266 852.491089,410.401855 
	C825.020508,410.401855 797.616150,410.401855 769.828003,410.401855 
	C769.828003,393.006836 769.828003,376.118774 769.828003,359.131958 
	C816.059570,359.131958 862.004883,359.131958 908.279785,359.131958 
	C908.279785,410.093079 908.279785,460.852570 908.279785,511.855347 
	C813.979248,511.855347 719.900269,511.855347 625.123108,511.855347 
	C625.123108,510.328491 625.122620,508.733673 625.123169,507.138885 
	C625.148193,428.661285 625.160339,350.183655 625.283142,271.706207 
	C625.285828,269.977905 626.552368,268.251556 628.039185,266.505310 
	C633.250793,266.393341 637.652466,266.300293 642.054138,266.207275 
	C642.791260,266.303192 643.528320,266.399139 644.883057,266.455261 
	C645.679810,266.344971 645.859009,266.274475 646.038147,266.203979 
	C647.091370,266.305786 648.144531,266.407623 650.028625,266.492523 
	C667.927979,266.397034 684.996521,266.318420 702.065002,266.239807 
	C704.081665,266.345825 706.098267,266.451813 708.980957,266.541168 
	C729.587036,266.431824 749.326965,266.339111 769.066956,266.246368 
	C771.083740,266.346344 773.100464,266.446289 775.982910,266.532593 
	C797.892517,266.528687 818.936340,266.538483 839.980225,266.548279 
z"/>
<path fill="#FAFAFA" opacity="1.000000" stroke="none" 
	d="
M574.995361,642.686401 
	C580.834045,641.623901 586.232788,640.726257 591.514648,639.372803 
	C592.636536,639.085266 594.032654,637.175232 594.102661,635.944519 
	C594.393433,630.833435 594.224854,625.696289 594.224854,620.074707 
	C586.344299,620.074707 578.929565,620.074707 571.300720,620.074707 
	C571.300720,614.649170 571.300720,609.724426 571.300720,604.582153 
	C585.467163,604.582153 599.532349,604.582153 613.996582,604.582153 
	C613.996582,618.917053 614.050293,632.881958 613.895630,646.844543 
	C613.883057,647.975220 612.697266,649.542419 611.627380,650.145691 
	C588.866943,662.982910 565.432922,664.822449 542.001282,652.622192 
	C521.759033,642.082520 512.809570,615.724609 520.487305,592.230408 
	C527.245667,571.549438 545.227783,557.960999 567.977356,556.086670 
	C581.024353,555.011597 593.580444,556.421509 605.339233,562.521301 
	C607.798218,563.796875 610.078979,565.416199 612.824585,567.113770 
	C609.516296,572.417725 606.472046,577.298279 603.168823,582.594116 
	C592.688477,574.795532 581.296143,571.985229 568.951965,574.046753 
	C555.809631,576.241455 546.090088,583.259033 541.765991,596.160339 
	C537.361633,609.301086 538.454041,621.955505 548.190308,632.607849 
	C555.148376,640.220642 564.597656,642.297363 574.995361,642.686401 
z"/>
<path fill="#F9F9F9" opacity="1.000000" stroke="none" 
	d="
M993.307556,610.531921 
	C991.329712,601.548889 984.026001,596.798767 973.655457,598.514160 
	C966.755554,599.655518 960.099792,602.273193 952.714417,604.409546 
	C950.418457,601.358398 947.340149,597.267517 943.915649,592.716553 
	C952.007202,586.978271 961.049805,583.599121 970.707520,583.328308 
	C978.894897,583.098755 987.434937,583.636169 995.280090,585.793701 
	C1006.946533,589.002136 1013.835571,597.681274 1014.269043,609.951477 
	C1014.815369,625.415649 1014.414062,640.913574 1014.394714,656.396912 
	C1014.393982,657.024658 1014.118408,657.652039 1013.944214,658.392700 
	C1007.544983,658.392700 1001.290039,658.392700 994.724854,658.392700 
	C994.492126,655.799500 994.278503,653.418884 994.003174,650.351379 
	C983.507690,660.300842 971.539246,662.412598 958.533813,659.019348 
	C948.171326,656.315613 941.615662,648.842773 940.838684,639.738098 
	C939.906250,628.810669 944.605713,620.216431 955.216370,617.605835 
	C964.279541,615.375916 973.920288,615.466797 983.314148,614.626465 
	C985.627258,614.419495 987.985901,614.429932 990.301514,614.615662 
	C993.214294,614.849121 993.689331,613.334961 993.307556,610.531921 
M977.621521,626.934875 
	C974.193054,627.381287 970.659119,627.450989 967.363892,628.373474 
	C963.608643,629.424744 961.032227,632.074585 961.023804,636.316284 
	C961.015259,640.628357 963.241333,644.173767 967.271423,644.827881 
	C972.190430,645.626282 977.553833,645.866577 982.352112,644.748169 
	C990.796265,642.779846 994.340820,636.176941 992.842102,626.938293 
	C988.150635,626.938293 983.369751,626.938293 977.621521,626.934875 
z"/>
<path fill="#FAFAFB" opacity="1.000000" stroke="none" 
	d="
M685.083252,627.982483 
	C683.364380,610.641785 688.492493,596.487305 703.934631,588.356262 
	C719.771790,580.017334 736.086487,580.003479 750.986084,591.182861 
	C762.793274,600.041870 764.965149,612.769165 763.613037,627.123657 
	C744.566833,627.123657 725.536682,627.123657 706.021545,627.123657 
	C706.931030,634.428284 710.508362,639.302002 716.417419,641.824341 
	C728.137085,646.826721 739.149048,644.941223 749.346558,636.604736 
	C752.758057,640.553711 756.112549,644.436768 760.236450,649.210388 
	C755.438538,651.838379 750.155151,655.671631 744.254272,657.759705 
	C733.497742,661.565857 722.363831,661.554382 711.385742,657.998352 
	C696.837646,653.286072 687.586365,643.856018 685.083252,627.982483 
M744.095703,612.764099 
	C741.870728,602.530212 734.243286,597.121704 723.298279,598.016785 
	C713.330566,598.831848 706.833313,605.232666 706.479248,614.763062 
	C718.411865,614.763062 730.338745,614.780518 742.265076,614.714661 
	C742.903992,614.711121 743.538940,614.006348 744.095703,612.764099 
z"/>
<path fill="#FAFAFB" opacity="1.000000" stroke="none" 
	d="
M793.739624,656.270386 
	C777.276062,648.408813 769.364075,633.019104 772.223633,614.940063 
	C774.953918,597.678284 788.109741,585.319946 806.015625,583.196594 
	C824.136292,581.047729 839.357178,587.790710 846.783630,601.217834 
	C851.169373,609.147339 851.556763,617.665344 850.681152,626.852234 
	C831.551941,626.852234 812.486084,626.852234 792.942505,626.852234 
	C793.587219,633.889160 797.054932,638.591003 802.632507,641.324951 
	C814.645142,647.213074 825.867798,644.735229 836.485107,636.744385 
	C839.819702,640.612183 843.068176,644.380188 846.382812,648.224915 
	C836.147156,660.525085 813.860474,664.314148 793.739624,656.270386 
M809.502930,614.816711 
	C816.746521,614.816711 823.990112,614.816711 831.285767,614.816711 
	C830.189026,604.125793 822.839478,597.824707 812.247192,597.849548 
	C801.734070,597.874207 794.375366,604.206177 793.169983,614.815857 
	C798.319519,614.815857 803.412415,614.815857 809.502930,614.816711 
z"/>
<path fill="#F8F8F9" opacity="1.000000" stroke="none" 
	d="
M857.695801,584.389771 
	C864.248352,584.484985 871.302734,582.732361 876.263245,585.195862 
	C881.242615,587.668823 884.144165,594.336731 887.938354,599.180237 
	C889.865295,601.640137 891.752686,604.130981 894.244995,607.371033 
	C899.586121,600.448303 904.469543,593.800781 909.755432,587.490417 
	C911.083862,585.904480 913.654663,584.674194 915.737854,584.535889 
	C921.658691,584.142700 927.622559,584.398010 934.786438,584.398010 
	C925.074890,597.092102 916.053467,608.884033 906.793884,620.987305 
	C916.495056,633.230469 926.173706,645.445251 936.485779,658.459412 
	C928.350403,658.459412 921.162292,658.577087 913.985962,658.338013 
	C912.853516,658.300354 911.568848,656.812988 910.704895,655.719177 
	C905.345642,648.933838 900.086426,642.069458 894.460388,634.800354 
	C889.121277,641.741943 883.826721,648.453552 878.747681,655.324402 
	C877.020386,657.661072 875.234985,658.787231 872.190186,658.650330 
	C866.105042,658.376587 859.998901,658.569214 852.772522,658.569214 
	C862.848572,645.694031 872.304077,633.611755 881.728149,621.569702 
	C872.289917,609.407227 862.954468,597.377197 853.116394,584.699524 
	C855.094788,584.552673 856.187195,584.471558 857.695801,584.389771 
z"/>
<path fill="#3688C0" opacity="1.000000" stroke="none" 
	d="
M885.000000,317.147095 
	C874.346680,317.148010 864.193359,317.148010 853.778992,317.148010 
	C853.537781,315.715912 853.195801,314.623810 853.193665,313.531036 
	C853.166138,299.366760 853.263306,285.201660 853.139099,271.038452 
	C853.109802,267.701141 853.965637,266.308075 857.605286,266.349762 
	C873.258850,266.529053 888.915527,266.462708 904.570862,266.434143 
	C907.005310,266.429718 908.732727,266.696014 908.706299,269.863251 
	C908.581238,284.859619 908.614197,299.857300 908.558350,314.854370 
	C908.555969,315.481995 908.229736,316.108398 907.939514,317.146149 
	C900.453064,317.146149 892.976562,317.146149 885.000000,317.147095 
z"/>
<path fill="#F6F6F7" opacity="1.000000" stroke="none" 
	d="
M650.739563,585.422241 
	C650.843201,588.611084 650.843201,591.359253 650.843201,595.250977 
	C659.333435,586.181335 668.846802,582.814636 680.224792,583.041870 
	C680.224792,589.249451 680.224792,595.286438 680.224792,601.669373 
	C677.079590,601.669373 674.132568,601.481628 671.216309,601.701782 
	C658.617188,602.653198 651.866150,609.782593 651.734802,622.412415 
	C651.611938,634.228943 651.708496,646.047668 651.708496,658.234131 
	C644.857910,658.234131 638.309814,658.234131 631.448914,658.234131 
	C631.448914,633.757690 631.448914,609.361206 631.448914,584.019470 
	C637.929443,584.344421 644.282654,584.662964 650.739563,585.422241 
z"/>
<path fill="#EFEFF0" opacity="1.000000" stroke="none" 
	d="
M697.404541,691.231934 
	C700.982361,696.679810 704.338928,701.810547 707.773987,707.061279 
	C713.388062,701.288940 714.748169,691.829346 723.930786,687.974121 
	C723.930786,698.493103 723.930786,707.729492 723.930786,717.143188 
	C722.310120,717.143188 720.888184,717.143188 719.106567,717.143188 
	C719.106567,711.089050 719.106567,705.231506 719.106567,698.018677 
	C714.910583,704.149841 711.452759,709.202454 707.520386,714.948425 
	C703.747375,709.305115 700.589722,704.582092 696.710693,698.780273 
	C696.710693,705.536377 696.710693,711.029724 696.710693,717.068481 
	C694.797913,717.180359 693.271667,717.269653 691.482300,717.374268 
	C691.482300,707.719055 691.482300,698.500183 691.482300,688.011841 
	C693.857788,689.221436 695.520630,690.068054 697.404541,691.231934 
z"/>
<path fill="#EBEBEC" opacity="1.000000" stroke="none" 
	d="
M600.677002,712.578003 
	C601.132629,716.844971 599.704834,718.360779 595.535950,716.862671 
	C595.535950,707.760803 595.535950,698.528076 595.535950,688.892273 
	C599.930542,688.892273 604.395325,688.866882 608.859741,688.898315 
	C615.396301,688.944336 619.204712,691.073975 620.589355,695.397644 
	C622.078186,700.046753 620.282593,704.072571 614.766541,708.074829 
	C616.823547,710.987610 618.887390,713.910156 621.167542,717.138977 
	C617.444275,717.949829 614.766907,717.663879 613.232056,714.029724 
	C611.009399,708.767456 606.867676,707.247620 601.082458,708.700012 
	C600.976562,709.623108 600.833313,710.871948 600.677002,712.578003 
M613.358276,703.078613 
	C613.815430,700.653198 615.487305,697.415039 614.507629,695.950989 
	C611.241272,691.069458 605.884460,693.671570 601.014709,693.137451 
	C601.014709,696.954407 601.014709,700.341614 601.014709,704.232178 
	C605.079346,703.998901 608.853027,703.782349 613.358276,703.078613 
z"/>
<path fill="#F6F6F7" opacity="1.000000" stroke="none" 
	d="
M993.206177,717.183228 
	C992.436646,713.265869 992.065857,709.419617 991.672485,705.339111 
	C986.714111,705.339111 981.784119,705.339111 976.347168,705.339111 
	C976.347168,709.235962 976.347168,713.121460 976.347168,717.236023 
	C974.424011,717.236023 973.003357,717.236023 971.219971,717.236023 
	C971.219971,707.946228 971.219971,698.734192 971.219971,689.233765 
	C972.695618,689.233765 974.257690,689.233765 976.252686,689.233765 
	C976.252686,692.874817 976.252686,696.472961 976.252686,700.434937 
	C981.572083,700.434937 986.473328,700.434937 991.925171,700.434937 
	C991.925171,696.864807 991.925171,693.139221 991.925171,689.170837 
	C993.882080,689.170837 995.299500,689.170837 996.823486,689.170837 
	C996.981506,689.622437 997.265076,690.058350 997.267761,690.496033 
	C997.316162,698.313721 997.191284,706.135803 997.421082,713.947571 
	C997.512573,717.056396 996.205078,717.684692 993.206177,717.183228 
z"/>
<path fill="#EFEFF0" opacity="1.000000" stroke="none" 
	d="
M863.331909,688.903320 
	C869.941406,688.901611 876.081055,688.901611 882.158020,688.901611 
	C883.458801,692.139221 882.545837,693.330261 879.292847,693.191956 
	C875.144592,693.015625 870.983154,693.149231 866.423462,693.149231 
	C866.423462,695.566650 866.423462,697.935181 866.423462,700.646484 
	C870.871338,700.646484 875.471802,700.646484 880.445740,700.646484 
	C880.597534,702.120544 880.721680,703.327209 880.883240,704.896484 
	C875.998047,704.896484 871.387695,704.896484 866.421753,704.896484 
	C866.421753,707.606812 866.421753,710.008118 866.421753,712.917480 
	C871.577637,712.917480 876.987488,712.917480 884.302673,712.917480 
	C882.627258,715.230042 881.814819,717.395874 880.908020,717.436218 
	C874.314514,717.728943 867.702026,717.593567 860.528870,717.593567 
	C860.528870,708.434937 860.468689,699.822449 860.630371,691.214111 
	C860.645081,690.430725 862.084290,689.674133 863.331909,688.903320 
z"/>
<path fill="#EBEBEC" opacity="1.000000" stroke="none" 
	d="
M556.695190,689.118469 
	C562.829651,691.388550 565.144348,694.489258 564.671570,699.333313 
	C564.195007,704.215759 560.782410,707.461731 554.905151,708.252258 
	C551.665100,708.688049 548.370239,708.716370 544.669861,708.956299 
	C544.669861,711.703552 544.669861,714.285339 544.669861,717.149109 
	C542.666016,717.149109 541.110352,717.149109 539.328125,717.149109 
	C539.328125,707.776184 539.328125,698.580566 539.328125,689.055176 
	C545.122559,689.055176 550.709839,689.055176 556.695190,689.118469 
M552.127808,704.123352 
	C555.822998,704.146484 558.852722,703.102234 558.989990,698.784241 
	C559.134705,694.235413 555.641357,693.584229 552.235962,693.274780 
	C549.852844,693.058228 547.434143,693.233032 544.779907,693.233032 
	C544.779907,695.469238 544.779907,697.110962 544.779907,698.752625 
	C544.779907,700.500122 544.779907,702.247620 544.779907,704.142700 
	C547.285095,704.142700 549.246765,704.142700 552.127808,704.123352 
z"/>
<path fill="#F6F6F7" opacity="1.000000" stroke="none" 
	d="
M764.877075,713.290527 
	C770.020996,713.292603 774.654846,713.292603 781.115295,713.292603 
	C779.377930,715.390442 778.542480,717.314148 777.635620,717.348511 
	C770.851746,717.604980 764.053894,717.487915 757.093933,717.487915 
	C757.093933,707.939331 757.093933,698.805786 757.093933,689.285583 
	C764.209717,689.285583 771.433472,689.285583 778.869873,689.285583 
	C778.869873,690.324463 778.869873,691.434143 778.869873,693.018311 
	C773.515808,693.018311 768.108032,693.018311 762.483276,693.018311 
	C762.483276,695.756348 762.483276,698.022278 762.483276,700.685425 
	C767.220520,700.685425 771.824097,700.685425 776.768005,700.685425 
	C776.973938,702.207214 777.133606,703.386963 777.355164,705.024170 
	C772.232849,705.024170 767.464355,705.024170 762.175232,705.024170 
	C763.277161,708.051208 759.725586,711.536682 764.877075,713.290527 
z"/>
<path fill="#EFEFF0" opacity="1.000000" stroke="none" 
	d="
M928.932495,688.374146 
	C933.053284,689.423767 936.753113,690.485107 941.374451,691.810730 
	C939.507629,694.036133 938.605042,695.112122 937.684326,696.209656 
	C929.761597,692.023376 922.167419,689.860229 918.250732,700.693237 
	C916.763245,704.807312 918.148560,709.235779 922.217957,711.626953 
	C927.279236,714.600830 932.393066,714.266785 936.958374,709.835876 
	C938.166565,710.989563 939.195007,711.971680 940.228821,712.958923 
	C933.820007,719.320312 922.557434,719.627502 916.521790,713.826599 
	C911.015991,708.534912 910.299072,698.775879 916.118591,693.626038 
	C919.302246,690.808777 924.320496,690.064758 928.932495,688.374146 
z"/>
<path fill="#F9F9F9" opacity="1.000000" stroke="none" 
	d="
M823.950623,688.933655 
	C826.754944,688.934692 829.068176,688.934692 831.350220,688.934692 
	C832.105469,692.673950 832.105469,692.673950 822.277832,693.385986 
	C822.277832,701.159851 822.277832,709.016357 822.277832,717.077026 
	C820.238403,717.077026 818.832336,717.077026 817.070557,717.077026 
	C817.070557,709.268250 817.070557,701.534485 817.070557,693.352661 
	C813.667358,693.352661 810.591858,693.352661 807.408875,693.352661 
	C806.359741,690.319092 806.330994,688.657593 810.024841,688.850037 
	C814.492371,689.082825 818.980347,688.922729 823.950623,688.933655 
z"/>
<path fill="#F6F6F7" opacity="1.000000" stroke="none" 
	d="
M652.888062,698.029297 
	C652.888794,694.890076 652.888794,692.246399 652.888794,689.235229 
	C654.532898,689.235229 656.048584,689.235229 657.815186,689.235229 
	C657.815186,698.473572 657.815186,707.697449 657.815186,717.196777 
	C656.220581,717.196777 654.687561,717.196777 652.887329,717.196777 
	C652.887329,710.759338 652.887329,704.642151 652.888062,698.029297 
z"/>
<path fill="#0B0F1D" opacity="1.000000" stroke="none" 
	d="
M839.815796,266.207886 
	C818.936340,266.538483 797.892517,266.528687 776.392395,266.382233 
	C777.295471,265.832642 778.653320,265.065979 780.014404,265.060150 
	C798.822449,264.979584 817.630981,264.989410 836.439209,265.038910 
	C837.510681,265.041718 838.580750,265.578979 839.815796,266.207886 
z"/>
<path fill="#0B0F1D" opacity="1.000000" stroke="none" 
	d="
M768.787781,265.921509 
	C749.326965,266.339111 729.587036,266.431824 709.390137,266.389587 
	C710.117432,265.838593 711.300171,265.064941 712.486023,265.060059 
	C730.371094,264.986084 748.256653,265.005676 766.142029,265.040955 
	C766.931213,265.042511 767.719788,265.403229 768.787781,265.921509 
z"/>
<path fill="#0B0F1D" opacity="1.000000" stroke="none" 
	d="
M701.785461,265.915619 
	C684.996521,266.318420 667.927979,266.397034 650.402710,266.344299 
	C651.135559,265.811615 652.323425,265.067047 653.515137,265.060974 
	C668.723999,264.983521 683.933350,265.003326 699.142517,265.038055 
	C699.930725,265.039856 700.718140,265.398773 701.785461,265.915619 
z"/>
<path fill="#0B0F1D" opacity="1.000000" stroke="none" 
	d="
M641.774902,265.888733 
	C637.652466,266.300293 633.250793,266.393341 628.395447,266.356018 
	C632.459717,266.007233 636.977722,265.788727 641.774902,265.888733 
z"/>
<path fill="#0B0F1D" opacity="1.000000" stroke="none" 
	d="
M645.933777,266.033142 
	C645.859009,266.274475 645.679810,266.344971 645.232178,266.309204 
	C645.252197,266.089386 645.540833,265.975830 645.933777,266.033142 
z"/>
<path fill="#1B2232" opacity="1.000000" stroke="none" 
	d="
M978.105225,626.936584 
	C983.369751,626.938293 988.150635,626.938293 992.842102,626.938293 
	C994.340820,636.176941 990.796265,642.779846 982.352112,644.748169 
	C977.553833,645.866577 972.190430,645.626282 967.271423,644.827881 
	C963.241333,644.173767 961.015259,640.628357 961.023804,636.316284 
	C961.032227,632.074585 963.608643,629.424744 967.363892,628.373474 
	C970.659119,627.450989 974.193054,627.381287 978.105225,626.936584 
z"/>
<path fill="#1E2433" opacity="1.000000" stroke="none" 
	d="
M744.135742,613.196045 
	C743.538940,614.006348 742.903992,614.711121 742.265076,614.714661 
	C730.338745,614.780518 718.411865,614.763062 706.479248,614.763062 
	C706.833313,605.232666 713.330566,598.831848 723.298279,598.016785 
	C734.243286,597.121704 741.870728,602.530212 744.135742,613.196045 
z"/>
<path fill="#1E2433" opacity="1.000000" stroke="none" 
	d="
M809.004150,614.816284 
	C803.412415,614.815857 798.319519,614.815857 793.169983,614.815857 
	C794.375366,604.206177 801.734070,597.874207 812.247192,597.849548 
	C822.839478,597.824707 830.189026,604.125793 831.285767,614.816711 
	C823.990112,614.816711 816.746521,614.816711 809.004150,614.816284 
z"/>
<path fill="#1E2433" opacity="1.000000" stroke="none" 
	d="
M612.992493,703.322144 
	C608.853027,703.782349 605.079346,703.998901 601.014709,704.232178 
	C601.014709,700.341614 601.014709,696.954407 601.014709,693.137451 
	C605.884460,693.671570 611.241272,691.069458 614.507629,695.950989 
	C615.487305,697.415039 613.815430,700.653198 612.992493,703.322144 
z"/>
<path fill="#1E2433" opacity="1.000000" stroke="none" 
	d="
M551.668091,704.133057 
	C549.246765,704.142700 547.285095,704.142700 544.779907,704.142700 
	C544.779907,702.247620 544.779907,700.500122 544.779907,698.752625 
	C544.779907,697.110962 544.779907,695.469238 544.779907,693.233032 
	C547.434143,693.233032 549.852844,693.058228 552.235962,693.274780 
	C555.641357,693.584229 559.134705,694.235413 558.989990,698.784241 
	C558.852722,703.102234 555.822998,704.146484 551.668091,704.133057 
z"/>
</svg>